<?xml version="1.0" encoding="utf-8"?>
<!-- Generator: Adobe Illustrator 25.2.3, SVG Export Plug-In . SVG Version: 6.00 Build 0)  -->
<svg version="1.1" id="Capa_1" xmlns="http://www.w3.org/2000/svg" xmlns:xlink="http://www.w3.org/1999/xlink" x="0px" y="0px"
	 viewBox="0 0 24 24" style="enable-background:new 0 0 24 24;" xml:space="preserve">
<style type="text/css">
	.st0{fill:none;stroke:#000000;stroke-width:1.5;stroke-linecap:round;stroke-linejoin:round;}
	.st1{fill:none;stroke:#000000;stroke-width:1.2389;stroke-linecap:round;stroke-linejoin:round;}
</style>
<path class="st0" d="M12,6c-1.6-1.5-3.8-2.3-6-2.3c-1.1,0-2.1,0.2-3,0.5v14.3C4,18.2,5,18,6,18c2.3,0,4.4,0.9,6,2.3 M21,11.3v7.2
	c-1-0.3-2-0.5-3-0.5c-2.2,0-4.4,0.8-6,2.3 M12,6c0.7-0.6,1.5-1.2,2.4-1.5 M12,6v14.2"/>
<g>
	<line class="st1" x1="20" y1="8.2" x2="20" y2="1.6"/>
	<line class="st1" x1="16.7" y1="4.9" x2="23.3" y2="4.9"/>
</g>
</svg>
