<svg xmlns="http://www.w3.org/2000/svg" xmlns:xlink="http://www.w3.org/1999/xlink" viewBox="0 0 610.66 441.93"><defs><style>.cls-1{fill:none;}.cls-2{clip-path:url(#clip-path);}.cls-3{fill:#84d2f6;}.cls-3,.cls-4,.cls-5,.cls-6,.cls-7,.cls-8{fill-rule:evenodd;}.cls-4{fill:#7bc9f0;}.cls-5{fill:#73c0ea;}.cls-6{fill:#6ab7e4;}.cls-7{fill:#62aede;}.cls-8{fill:#59a5d8;}.cls-9{clip-path:url(#clip-path-2);}</style><clipPath id="clip-path"><rect class="cls-1" width="305.33" height="441.93"/></clipPath><clipPath id="clip-path-2"><rect class="cls-1" x="305.33" width="305.33" height="441.93"/></clipPath></defs><g id="Capa_2" data-name="Capa 2"><g id="Capa_1-2" data-name="Capa 1"><g id="_Repetici贸n_de_espejo_" data-name="&lt;Repetici贸n de espejo&gt;"><g class="cls-2"><path class="cls-3" d="M278.42,417.69V196.43c0-8.81-4.37-16.92-11.39-21.19-17.46-15.79-45-36.56-82.61-50.15-67.7-24.47-126.62-10.71-151.82-3L8.16,136.82A25.2,25.2,0,0,0,0,155.62V396.33a24.76,24.76,0,0,0,11,20.93h0a20.39,20.39,0,0,0,16.15,2.66l35.37-9a20.25,20.25,0,0,1,5-.63,277.59,277.59,0,0,1,94.43,0,285.53,285.53,0,0,1,87.43,30.44C263.67,445.88,278.42,434.2,278.42,417.69Z"/><path class="cls-4" d="M283.8,412.81V191.55c0-8.81-4.68-16.64-11.15-22.1-18.38-15.49-44-40.13-80.86-56.71C125.51,82.89,67,88.66,43.16,97.64c-8.39,3.16-15.94,8.55-23.92,12.83a23.41,23.41,0,0,0-8,18.15V369.33A27.27,27.27,0,0,0,22,391.13h0a20.57,20.57,0,0,0,15.81,3.95l34.62-6.24a19.25,19.25,0,0,1,4.92-.23,268.42,268.42,0,0,1,92.44,7.5,300.18,300.18,0,0,1,85.58,37.38C269.36,439.82,283.8,429.32,283.8,412.81Z"/><path class="cls-5" d="M289.18,407.92V186.67c0-8.81-4.59-17-10.91-23-18-17-43.09-43.71-79.12-63.28C134.3,65.16,77.22,66.12,53.73,73.23c-8.17,2.48-15.6,7.26-23.4,10.89-4.95,3.78-7.83,10.21-7.83,17.5V342.33A30.06,30.06,0,0,0,33,365h0c4.67,3.89,10.21,5.77,15.48,5.23l33.87-3.42a18.11,18.11,0,0,1,4.81.16c21.48-.3,53.07,2.08,90.45,15,36.1,12.48,64.58,30.31,83.74,44.32C275.06,433.77,289.18,424.44,289.18,407.92Z"/><path class="cls-6" d="M294.57,403V181.78c0-8.8-4.52-17.43-10.68-23.9C266.22,139.33,241.75,110.6,206.51,88c-63.42-40.6-119-44.46-142.22-39.22-7.93,1.8-15.26,6-22.88,9-4.84,3.37-7.65,9.56-7.65,16.85V315.33A33.19,33.19,0,0,0,44,338.87h0c4.57,4.28,10,6.61,15.14,6.52l33.12-.62a17.49,17.49,0,0,1,4.71.57c21,1.48,51.9,6.47,88.45,22.5,35.32,15.48,63.17,35.68,81.9,51.27C280.75,427.72,294.57,419.56,294.57,403Z"/><path class="cls-7" d="M300,398.16V176.9c0-8.81-4.42-17.83-10.43-24.81-17.3-20.07-41.19-50.85-75.64-76.4-62-46-116.15-54.62-139-51.28-7.69,1.12-14.92,4.67-22.37,7C47.76,34.37,45,40.33,45,47.62V288.33a36.63,36.63,0,0,0,10,24.41h0c4.47,4.67,9.76,7.46,14.8,7.8l32.38,2.2a17.42,17.42,0,0,1,4.59,1c20.54,3.26,50.74,10.88,86.47,30,34.52,18.48,61.75,41,80.06,58.22C286.44,421.66,300,414.67,300,398.16Z"/><path class="cls-8" d="M305.33,393.28V172c0-8.81-3.9-18.65-10.19-25.71-15.62-22.73-40.24-54.43-73.9-83C160.67,12,108,2.33,85.42,0L63.57,5.06c-4.63,2.55-7.31,8.27-7.31,15.56V261.33c0,8.62,3.74,18.24,9.81,25.28h0c4.36,5.06,9.54,8.31,14.46,9.09l31.63,5a18,18,0,0,1,4.49,1.36c20.07,5,49.57,15.28,84.48,37.51C234.85,361,261.45,386,279.34,404.73,292.14,415.61,305.33,409.79,305.33,393.28Z"/></g></g><g id="_Repetici贸n_de_espejo_2" data-name="&lt;Repetici贸n de espejo&gt;"><g class="cls-9"><path class="cls-3" d="M332.24,417.69V196.43c0-8.81,4.37-16.92,11.4-21.19,17.45-15.79,45-36.56,82.6-50.15,67.71-24.47,126.62-10.71,151.83-3l24.43,14.77a25.2,25.2,0,0,1,8.16,18.8V396.33c0,8.62-4.17,16.59-11,20.93h0a20.42,20.42,0,0,1-16.16,2.66l-35.36-9a20.39,20.39,0,0,0-5-.63,277.59,277.59,0,0,0-94.43,0,285.36,285.36,0,0,0-87.42,30.44C347,445.88,332.24,434.2,332.24,417.69Z"/><path class="cls-4" d="M326.86,412.81V191.55c0-8.81,4.68-16.64,11.15-22.1,18.38-15.49,44-40.13,80.87-56.71,66.27-29.85,124.78-24.08,148.62-15.1,8.39,3.16,15.94,8.55,23.92,12.83a23.41,23.41,0,0,1,8,18.15V369.33a27.27,27.27,0,0,1-10.74,21.8h0a20.57,20.57,0,0,1-15.81,3.95l-34.62-6.24a19.25,19.25,0,0,0-4.92-.23,268.42,268.42,0,0,0-92.44,7.5,300.18,300.18,0,0,0-85.58,37.38C341.3,439.82,326.86,429.32,326.86,412.81Z"/><path class="cls-5" d="M321.48,407.92V186.67c0-8.81,4.6-17,10.91-23,18-17,43.09-43.71,79.12-63.28,64.85-35.23,121.94-34.27,145.43-27.16,8.16,2.48,15.6,7.26,23.4,10.89,4.94,3.78,7.82,10.21,7.82,17.5V342.33A30.06,30.06,0,0,1,577.65,365h0c-4.67,3.89-10.21,5.77-15.47,5.23l-33.87-3.42a18.17,18.17,0,0,0-4.82.16c-21.48-.3-53.07,2.08-90.44,15-36.11,12.48-64.59,30.31-83.75,44.32C335.6,433.77,321.48,424.44,321.48,407.92Z"/><path class="cls-6" d="M316.1,403V181.78c0-8.8,4.51-17.43,10.67-23.9,17.67-18.55,42.14-47.28,77.38-69.84,63.42-40.6,119.05-44.46,142.22-39.22,7.93,1.8,15.26,6,22.89,9,4.84,3.37,7.64,9.56,7.64,16.85V315.33a33.19,33.19,0,0,1-10.27,23.54h0c-4.57,4.28-10,6.61-15.13,6.52l-33.13-.62a17.37,17.37,0,0,0-4.7.57c-21,1.48-51.91,6.47-88.46,22.5-35.32,15.48-63.17,35.68-81.9,51.27C329.91,427.72,316.1,419.56,316.1,403Z"/><path class="cls-7" d="M310.71,398.16V176.9c0-8.81,4.42-17.83,10.43-24.81,17.3-20.07,41.2-50.85,75.64-76.4,62-46,116.15-54.62,139-51.28,7.68,1.12,14.91,4.67,22.37,7,4.73,2.95,7.47,8.91,7.47,16.2V288.33a36.63,36.63,0,0,1-10,24.41h0c-4.47,4.67-9.76,7.46-14.79,7.8l-32.38,2.2a17.41,17.41,0,0,0-4.6,1c-20.54,3.26-50.74,10.88-86.47,30-34.52,18.48-61.74,41-80.06,58.22C324.22,421.66,310.71,414.67,310.71,398.16Z"/><path class="cls-8" d="M305.33,393.28V172c0-8.81,3.9-18.65,10.19-25.71,15.62-22.73,40.25-54.43,73.9-83C450,12,502.69,2.33,525.24,0L547.1,5.06c4.62,2.55,7.3,8.27,7.3,15.56V261.33c0,8.62-3.74,18.24-9.81,25.28h0c-4.36,5.06-9.54,8.31-14.46,9.09l-31.63,5a18,18,0,0,0-4.49,1.36c-20.06,5-49.57,15.28-84.48,37.51C375.81,361,349.21,386,331.32,404.73,318.52,415.61,305.33,409.79,305.33,393.28Z"/></g></g></g></g></svg>