<svg xmlns="http://www.w3.org/2000/svg" viewBox="0 0 32 35.74"><g id="Capa_2" data-name="Capa 2"><g id="Capa_1-2" data-name="Capa 1"><path d="M14.32,35.74c-3.2,0-5.67-3-6.55-4A69.45,69.45,0,0,1,.3,19.53a2.69,2.69,0,0,1,1.2-3.65L3,15.14a2.71,2.71,0,0,1,3.6,1.19A81.16,81.16,0,0,0,12,25.61c.22.31.42.59.61.84a.6.6,0,0,0,1.07-.24l.05-.25a59.4,59.4,0,0,1,2.71-9.72A48,48,0,0,1,26.11.92,2.86,2.86,0,0,1,30.27.87l.92,1a2.85,2.85,0,0,1,.06,3.92,41.14,41.14,0,0,0-8.24,13,52.23,52.23,0,0,0-2.38,8.62,29.4,29.4,0,0,1-1.11,4.31,5.71,5.71,0,0,1-3.88,3.86A5.14,5.14,0,0,1,14.32,35.74Z"/></g></g></svg>